<svg xmlns="http://www.w3.org/2000/svg" viewBox="0 0 32 32">
  <!-- Fundo Verde (#16a34a é o green-600 do Tailwind) com bordas arredondadas -->
  <rect x="0" y="0" width="32" height="32" rx="8" fill="#16a34a"/>
  
  <!-- Ícone Estetoscópio (Branco, centralizado) -->
  <g transform="translate(4, 4)" fill="none" stroke="#ffffff" stroke-width="2" stroke-linecap="round" stroke-linejoin="round">
    <path d="M4.8 2.3A.3.3 0 1 0 5 2H4a2 2 0 0 0-2 2v5a6 6 0 0 0 6 6v0a6 6 0 0 0 6-6V4a2 2 0 0 0-2-2h-1a.2.2 0 1 0 .3.3"/>
    <path d="M8 15v6"/>
    <path d="M13 21a2 2 0 0 1-4 0"/>
  </g>
</svg>